<svg xmlns="http://www.w3.org/2000/svg" viewBox="0 0 100 100">
  <defs>
    <linearGradient id="flameGradient" x1="0%" y1="0%" x2="0%" y2="100%">
      <stop offset="0%" style="stop-color:#FFD700;stop-opacity:1" />
      <stop offset="50%" style="stop-color:#FF6B00;stop-opacity:1" />
      <stop offset="100%" style="stop-color:#FF0000;stop-opacity:1" />
    </linearGradient>
  </defs>
  <path d="M 50 10
           C 50 10, 35 25, 35 40
           C 35 40, 30 35, 30 45
           C 30 60, 35 75, 50 85
           C 65 75, 70 60, 70 45
           C 70 35, 65 40, 65 40
           C 65 25, 50 10, 50 10 Z
           M 50 35
           C 50 35, 45 45, 45 52
           C 45 60, 48 68, 50 72
           C 52 68, 55 60, 55 52
           C 55 45, 50 35, 50 35 Z"
        fill="url(#flameGradient)"
        stroke="#8B0000"
        stroke-width="1"/>
</svg>
